# xmcd
# 
# Track frame offsets:
#     150
#     30215
#     51891
#     73137
#     95118
#     116750
#     136725
#     162375
# 
# Disc length: 2497
# 
# Revision: 0
# Processed by: cddbd v1.5.2PL0 Copyright (c) Steve Scherf et al.
# Submitted via: fre:ac v1.0.17
# 
DISCID=6b09bf08
DTITLE=Desecrator - Live Til Death
DYEAR=2011
DGENRE=Thrash-Metal
TTITLE0=Live Til Death
TTITLE1=1800 Volts
TTITLE2=Bred, Fed, Then Dead
TTITLE3=Little Jimmy Black
TTITLE4=Slaughtered in Masses
TTITLE5=Serpents Return
TTITLE6=Rotten Christ
TTITLE7=Destroying God´s Work
EXTD=
EXTT0=
EXTT1=
EXTT2=
EXTT3=
EXTT4=
EXTT5=
EXTT6=
EXTT7=
PLAYORDER=
